<svg width="20" height="20" viewBox="0 0 20 20" fill="none" xmlns="http://www.w3.org/2000/svg">
<g clip-path="url(#clip0_317_1277)">
<path d="M20 10C20 11.9778 19.4135 13.9112 18.3147 15.5557C17.2159 17.2002 15.6541 18.4819 13.8268 19.2388C11.9996 19.9957 9.98891 20.1937 8.0491 19.8079C6.10929 19.422 4.32746 18.4696 2.92894 17.0711C1.53041 15.6725 0.578004 13.8907 0.192152 11.9509C-0.1937 10.0111 0.0043328 8.00043 0.761209 6.17317C1.51809 4.3459 2.79981 2.78412 4.4443 1.6853C6.08879 0.58649 8.02219 0 10 0C12.6522 0 15.1957 1.05357 17.0711 2.92893C18.9464 4.8043 20 7.34783 20 10Z" fill="#F7931A"/>
<path fill-rule="evenodd" clip-rule="evenodd" d="M7.10662 4.56618L9.4048 5.18164L9.91844 3.26709L11.0675 3.57891L10.5739 5.41436L11.5112 5.66618L12.0057 3.81073L13.1748 4.12345L12.6712 5.98891C12.6712 5.98891 14.5803 6.41164 15.0293 7.96436C15.4784 9.51709 14.0421 10.3325 13.5984 10.3635C13.5984 10.3635 15.2712 11.2807 14.6966 13.0853C14.1221 14.8898 12.3584 15.2125 10.503 14.7989L9.99935 16.7335L8.83026 16.4207L9.34389 14.5162L8.41662 14.2635L7.90298 16.1816L6.74298 15.8698L7.25753 13.9607L4.89844 13.3244L5.49298 12.0044C5.49298 12.0044 6.15844 12.1862 6.41026 12.2462C6.66207 12.3062 6.82389 12.0444 6.8948 11.7825C6.96571 11.5207 8.03389 7.18164 8.1348 6.82436C8.23571 6.46709 8.1948 6.188 7.77116 6.078C7.34753 5.968 6.77116 5.79618 6.77116 5.79618L7.10662 4.56618ZM9.4248 10.3125L8.78844 12.8425C8.78844 12.8425 11.9439 13.9816 12.3475 12.3789C12.7512 10.7762 9.4248 10.3125 9.4248 10.3125ZM9.71753 9.11254L10.3421 6.79436C10.3421 6.79436 13.0439 7.278 12.7112 8.568C12.3784 9.858 10.7857 9.36345 9.71753 9.11254Z" fill="white"/>
</g>
<defs>
<clipPath id="clip0_317_1277">
<rect width="20" height="20" fill="white"/>
</clipPath>
</defs>
</svg>
