<svg width="24" height="25" viewBox="0 0 24 25" fill="none" xmlns="http://www.w3.org/2000/svg">
<g opacity="0.5" clip-path="url(#clip0_142_365)">
<path d="M12 14C12.8284 14 13.5 13.3284 13.5 12.5C13.5 11.6716 12.8284 11 12 11C11.1716 11 10.5 11.6716 10.5 12.5C10.5 13.3284 11.1716 14 12 14Z" fill="white"/>
<path d="M15.2901 18.6201L14.0001 17.2801L13.9301 17.2101L12.6601 15.9401C12.4585 15.9754 12.2546 15.9955 12.0501 16.0001C11.5863 16.0067 11.1257 15.9211 10.6953 15.7482C10.2649 15.5753 9.87313 15.3185 9.54281 14.9928C9.21249 14.6672 8.9502 14.2791 8.77119 13.8512C8.59218 13.4232 8.50002 12.964 8.50007 12.5001C8.50471 12.2956 8.52476 12.0917 8.56007 11.8901L6.56007 9.89012L5.00007 8.37012C3.87139 9.43359 2.90448 10.6566 2.13007 12.0001C2.0423 12.1521 1.99609 12.3246 1.99609 12.5001C1.99609 12.6757 2.0423 12.8481 2.13007 13.0001C2.76007 14.0901 6.13007 19.5001 12.0201 19.5001H12.2701C13.3776 19.4673 14.4708 19.2405 15.5001 18.8301L15.2901 18.6201Z" fill="white"/>
<path d="M8.59 6.26012L11.39 9.06012C11.5915 9.02481 11.7954 9.00475 12 9.00012C12.9283 9.00012 13.8185 9.36887 14.4749 10.0252C15.1313 10.6816 15.5 11.5719 15.5 12.5001C15.4954 12.7047 15.4753 12.9086 15.44 13.1101L18.12 15.7901L18.96 16.6301C20.1028 15.5694 21.0834 14.3463 21.87 13.0001C21.9578 12.8481 22.004 12.6757 22.004 12.5001C22.004 12.3246 21.9578 12.1521 21.87 12.0001C21.23 10.8901 17.71 5.32012 11.73 5.50012C10.6225 5.53297 9.52924 5.75974 8.5 6.17012L8.59 6.26012Z" fill="white"/>
<path d="M20.7102 19.7899L19.4102 18.4999L17.4102 16.4999L7.89019 6.96994L6.42019 5.49994L4.71019 3.78994C4.61695 3.6967 4.50626 3.62274 4.38443 3.57228C4.26261 3.52182 4.13204 3.49585 4.00019 3.49585C3.86833 3.49585 3.73776 3.52182 3.61594 3.57228C3.49411 3.62274 3.38342 3.6967 3.29019 3.78994C3.10188 3.97825 2.99609 4.23364 2.99609 4.49994C2.99609 4.76624 3.10188 5.02164 3.29019 5.20994L5.53019 7.49994L7.28019 9.19994L14.5902 16.4999L14.6602 16.5699L16.0002 17.9099L16.5902 18.4999L19.2902 21.2099C19.3831 21.3037 19.4937 21.3781 19.6156 21.4288C19.7375 21.4796 19.8682 21.5057 20.0002 21.5057C20.1322 21.5057 20.2629 21.4796 20.3848 21.4288C20.5066 21.3781 20.6172 21.3037 20.7102 21.2099C20.8039 21.117 20.8783 21.0064 20.9291 20.8845C20.9798 20.7627 21.006 20.632 21.006 20.4999C21.006 20.3679 20.9798 20.2372 20.9291 20.1154C20.8783 19.9935 20.8039 19.8829 20.7102 19.7899Z" fill="white"/>
</g>
<defs>
<clipPath id="clip0_142_365">
<rect width="24" height="24" fill="white" transform="translate(0 0.5)"/>
</clipPath>
</defs>
</svg>
