<svg width="24" height="25" viewBox="0 0 24 25" fill="none" xmlns="http://www.w3.org/2000/svg">
<g opacity="0.5" clip-path="url(#clip0_215_362)">
<path d="M12 14C12.8284 14 13.5 13.3284 13.5 12.5C13.5 11.6716 12.8284 11 12 11C11.1716 11 10.5 11.6716 10.5 12.5C10.5 13.3284 11.1716 14 12 14Z" fill="white"/>
<path d="M21.8701 12.0001C21.2301 10.8901 17.7101 5.32012 11.7301 5.50012C6.20007 5.64012 3.00007 10.5001 2.13007 12.0001C2.0423 12.1521 1.99609 12.3246 1.99609 12.5001C1.99609 12.6757 2.0423 12.8481 2.13007 13.0001C2.76007 14.0901 6.13007 19.5001 12.0201 19.5001H12.2701C17.8001 19.3601 21.0101 14.5001 21.8701 13.0001C21.9578 12.8481 22.004 12.6757 22.004 12.5001C22.004 12.3246 21.9578 12.1521 21.8701 12.0001V12.0001ZM12.0001 16.0001C11.3078 16.0001 10.6311 15.7948 10.0556 15.4103C9.48 15.0257 9.0314 14.479 8.76649 13.8395C8.50158 13.2 8.43227 12.4962 8.56732 11.8173C8.70237 11.1384 9.03571 10.5147 9.52519 10.0252C10.0147 9.53576 10.6383 9.20242 11.3173 9.06737C11.9962 8.93232 12.6999 9.00163 13.3395 9.26654C13.979 9.53144 14.5256 9.98005 14.9102 10.5556C15.2948 11.1312 15.5001 11.8079 15.5001 12.5001C15.5001 13.4284 15.1313 14.3186 14.4749 14.975C13.8186 15.6314 12.9283 16.0001 12.0001 16.0001V16.0001Z" fill="white"/>
</g>
<defs>
<clipPath id="clip0_215_362">
<rect width="24" height="24" fill="white" transform="translate(0 0.5)"/>
</clipPath>
</defs>
</svg>
