<svg width="168" height="167" viewBox="0 0 168 167" fill="none" xmlns="http://www.w3.org/2000/svg">
<g clip-path="url(#clip0_254_91)">
<path d="M144.606 134.226L33.2729 22.8928C32.6241 22.244 31.8539 21.7294 31.0062 21.3783C30.1586 21.0272 29.25 20.8464 28.3325 20.8464C27.415 20.8464 26.5065 21.0272 25.6588 21.3783C24.8111 21.7294 24.0409 22.244 23.3921 22.8928C22.0818 24.2031 21.3457 25.9802 21.3457 27.8332C21.3457 29.6863 22.0818 31.4634 23.3921 32.7737L134.725 144.107C135.372 144.759 136.142 145.277 136.99 145.63C137.838 145.983 138.747 146.165 139.666 146.165C140.584 146.165 141.494 145.983 142.342 145.63C143.19 145.277 143.959 144.759 144.606 144.107C145.258 143.46 145.776 142.691 146.129 141.843C146.483 140.995 146.665 140.085 146.665 139.167C146.665 138.248 146.483 137.338 146.129 136.491C145.776 135.643 145.258 134.873 144.606 134.226Z" fill="#233D50"/>
<path d="M87.7569 125.668L89.6357 108.828L70.0828 89.0667H48.3032L56.9315 76.1242L46.9115 66.1042L29.5157 92.1284C28.8078 93.1757 28.3985 94.3961 28.3319 95.6585C28.2653 96.9208 28.5439 98.1775 29.1376 99.2935C29.7314 100.409 30.6179 101.343 31.7021 101.993C32.7862 102.643 34.027 102.985 35.2911 102.983H76.2757L70.9178 152.318C70.7449 153.866 71.0966 155.428 71.9167 156.753C72.7368 158.077 73.9777 159.089 75.4407 159.624C76.1991 159.9 76.9997 160.041 77.8065 160.042C78.9463 160.043 80.0691 159.765 81.0761 159.231C82.0832 158.697 82.9436 157.924 83.5819 156.98L105.292 124.485L95.2719 114.465L87.7569 125.668Z" fill="#233D50"/>
<path d="M80.242 41.3326L78.3633 58.1718L97.9162 77.9334H119.487L110.859 90.8759L120.879 100.896L138.275 74.8718C138.973 73.8391 139.382 72.6377 139.457 71.3931C139.532 70.1485 139.272 68.9066 138.703 67.7971C138.134 66.6877 137.278 65.7514 136.223 65.0864C135.168 64.4214 133.954 64.0519 132.708 64.0168H91.7233L97.0812 14.6822C97.1747 13.1904 96.7853 11.7082 95.9706 10.4549C95.156 9.20168 93.9595 8.24407 92.5583 7.72384C91.1007 7.19433 89.5079 7.16692 88.033 7.64597C86.558 8.12502 85.2853 9.08307 84.417 10.368L62.707 42.5155L72.727 52.5355L80.242 41.3326Z" fill="#233D50"/>
</g>
<defs>
<clipPath id="clip0_254_91">
<rect width="167" height="167" fill="white" transform="translate(0.5)"/>
</clipPath>
</defs>
</svg>
