<svg width="20" height="20" viewBox="0 0 20 20" fill="none" xmlns="http://www.w3.org/2000/svg">
<g clip-path="url(#clip0_317_1275)">
<path d="M9.99832 0C7.35592 0.00770804 4.8246 1.0638 2.96022 2.93635C1.09585 4.8089 0.0508441 7.34482 0.0546981 9.98723C0.0585521 12.6296 1.11095 15.1625 2.98078 17.0296C4.85061 18.8967 7.385 19.9454 10.0274 19.9454C12.6698 19.9454 15.2042 18.8967 17.0741 17.0296C18.9439 15.1625 19.9963 12.6296 20.0001 9.98723C20.004 7.34482 18.959 4.8089 17.0946 2.93635C15.2302 1.0638 12.6989 0.00770804 10.0565 0L9.99832 0Z" fill="#345D9D"/>
<path d="M10.1813 10.2236L9.3004 13.1818H13.9877C14.0187 13.1802 14.0496 13.1852 14.0786 13.1963C14.1075 13.2072 14.1341 13.2236 14.1568 13.2445C14.1793 13.266 14.1975 13.2916 14.2104 13.32C14.224 13.3484 14.2315 13.3794 14.2322 13.4109V13.4881L13.824 14.8945C13.8066 14.9612 13.7664 15.0197 13.7104 15.06C13.655 15.1006 13.5873 15.1212 13.5186 15.1182H6.34585L7.54767 11.0272L6.20312 11.4345L6.50858 10.4972L7.85313 10.0891L9.54494 4.33451C9.56326 4.26822 9.60367 4.21016 9.65949 4.16997C9.71468 4.12929 9.78186 4.10818 9.8504 4.10997H11.6686C11.6996 4.10917 11.7305 4.11442 11.7595 4.12542C11.7888 4.13607 11.8157 4.15245 11.8386 4.17361C11.8615 4.19474 11.8798 4.22044 11.8922 4.24906C11.9053 4.27764 11.9124 4.30857 11.9131 4.33997V4.41815L10.4868 9.26815L11.8322 8.85997L11.5449 9.83633L10.1813 10.2236Z" fill="white"/>
</g>
<defs>
<clipPath id="clip0_317_1275">
<rect width="20" height="20" fill="white"/>
</clipPath>
</defs>
</svg>
