<svg width="20" height="20" viewBox="0 0 20 20" fill="none" xmlns="http://www.w3.org/2000/svg">
<g clip-path="url(#clip0_317_1272)">
<path d="M10 20C15.5228 20 20 15.5228 20 10C20 4.47715 15.5228 0 10 0C4.47715 0 0 4.47715 0 10C0 15.5228 4.47715 20 10 20Z" fill="#26A17B"/>
<path fill-rule="evenodd" clip-rule="evenodd" d="M11.2013 10.8647V10.8635C11.1325 10.8685 10.7781 10.8897 9.9875 10.8897C9.35625 10.8897 8.91187 10.871 8.75562 10.8635V10.8653C6.32562 10.7585 4.51187 10.3353 4.51187 9.82908C4.51187 9.32346 6.32562 8.90033 8.75562 8.79158V10.4441C8.91437 10.4553 9.36937 10.4822 9.99812 10.4822C10.7525 10.4822 11.1306 10.451 11.2013 10.4447V8.79283C13.6263 8.90096 15.4356 9.32408 15.4356 9.82908C15.4356 10.3353 13.6263 10.7572 11.2013 10.8647ZM11.2013 8.62096V7.14221H14.585V4.88721H5.37188V7.14221H8.75562V8.62033C6.00562 8.74658 3.9375 9.29158 3.9375 9.94408C3.9375 10.5966 6.00562 11.141 8.75562 11.2678V16.0066H11.2013V11.2666C13.9469 11.1403 16.01 10.596 16.01 9.94408C16.01 9.29221 13.9469 8.74783 11.2013 8.62096Z" fill="white"/>
</g>
<defs>
<clipPath id="clip0_317_1272">
<rect width="20" height="20" fill="white"/>
</clipPath>
</defs>
</svg>
