<svg width="22" height="15" viewBox="0 0 22 15" fill="none" xmlns="http://www.w3.org/2000/svg">
<path d="M20.8701 7.00012C20.2301 5.89012 16.7101 0.320116 10.7301 0.500116C5.20007 0.640116 2.00007 5.50012 1.13007 7.00012C1.0423 7.15213 0.996094 7.32458 0.996094 7.50012C0.996094 7.67565 1.0423 7.8481 1.13007 8.00012C1.76007 9.09012 5.13007 14.5001 11.0201 14.5001H11.2701C16.8001 14.3601 20.0101 9.50012 20.8701 8.00012C20.9578 7.8481 21.004 7.67565 21.004 7.50012C21.004 7.32458 20.9578 7.15213 20.8701 7.00012ZM11.0001 11.0001C10.3078 11.0001 9.63114 10.7948 9.05557 10.4103C8.48 10.0257 8.0314 9.47905 7.76649 8.83951C7.50158 8.19997 7.43227 7.49623 7.56732 6.8173C7.70237 6.13837 8.03571 5.51473 8.52519 5.02524C9.01468 4.53576 9.63832 4.20241 10.3173 4.06737C10.9962 3.93232 11.6999 4.00163 12.3395 4.26654C12.979 4.53144 13.5256 4.98005 13.9102 5.55562C14.2948 6.13119 14.5001 6.80788 14.5001 7.50012C14.5001 8.42837 14.1313 9.31861 13.4749 9.97499C12.8186 10.6314 11.9283 11.0001 11.0001 11.0001Z" fill="white"/>
</svg>
