<svg width="20" height="20" viewBox="0 0 20 20" fill="none" xmlns="http://www.w3.org/2000/svg">
<g clip-path="url(#clip0_317_1271)">
<path d="M10 20C15.5228 20 20 15.5228 20 10C20 4.47715 15.5228 0 10 0C4.47715 0 0 4.47715 0 10C0 15.5228 4.47715 20 10 20Z" fill="#23292F"/>
<path d="M14.4187 5H16.225L12.4656 8.72312C11.8084 9.3707 10.9227 9.7337 10 9.7337C9.0773 9.7337 8.19165 9.3707 7.53438 8.72312L3.77187 5H5.58125L8.4375 7.82687C8.85343 8.23741 9.41433 8.4676 9.99875 8.4676C10.5832 8.4676 11.1441 8.23741 11.56 7.82687L14.4187 5ZM5.55938 15.3519H3.75L7.53438 11.6062C8.19165 10.9587 9.0773 10.5957 10 10.5957C10.9227 10.5957 11.8084 10.9587 12.4656 11.6062L16.25 15.3512H14.4406L11.5625 12.5C11.1466 12.0895 10.5857 11.8593 10.0013 11.8593C9.41683 11.8593 8.85593 12.0895 8.44 12.5L5.55875 15.3519H5.55938Z" fill="white"/>
</g>
<defs>
<clipPath id="clip0_317_1271">
<rect width="20" height="20" fill="white"/>
</clipPath>
</defs>
</svg>
