<svg width="350" height="350" viewBox="0 0 350 350" fill="none" xmlns="http://www.w3.org/2000/svg">
<circle cx="175" cy="175" r="174.5" fill="#061017" stroke="#95F13A"/>
<circle cx="175" cy="175" r="149.5" fill="#061017" stroke="#95F13A"/>
<circle cx="175" cy="175" r="114.5" fill="#061017" stroke="#95F13A"/>
<circle cx="175" cy="175" r="84.5" fill="#061017" stroke="#95F13A"/>
<circle cx="175" cy="175" r="54.5" fill="#061017" stroke="#95F13A"/>
<circle cx="175" cy="175" r="24.5" fill="#061017" stroke="#95F13A"/>
<g opacity="0.5">
<path d="M174.253 173.615L172.342 176.068L174.335 178.63H172.73L171.535 177.101L170.349 178.63H168.734L170.738 176.068L168.816 173.615H170.431L171.535 175.035L172.649 173.615H174.253Z" fill="white"/>
<path d="M177.71 178.759C176.974 178.759 176.365 178.587 175.881 178.242C175.397 177.898 175.121 177.435 175.053 176.852H176.494C176.678 177.375 177.087 177.637 177.721 177.637C178.129 177.637 178.446 177.531 178.671 177.319C178.896 177.101 179.008 176.813 179.008 176.455C179.008 176.098 178.896 175.813 178.671 175.601C178.453 175.383 178.143 175.273 177.741 175.273C177.237 175.273 176.859 175.479 176.607 175.889H175.176L175.728 172.076H180.041V173.278H176.852L176.668 174.688H176.709C177.111 174.423 177.577 174.29 178.109 174.29C178.797 174.29 179.356 174.476 179.785 174.847C180.214 175.211 180.429 175.747 180.429 176.455C180.429 177.177 180.18 177.743 179.683 178.153C179.192 178.557 178.535 178.759 177.71 178.759Z" fill="white"/>
</g>
<g opacity="0.5">
<path d="M174.433 211.455L172.459 213.862L174.517 216.375H172.86L171.626 214.875L170.402 216.375H168.734L170.803 213.862L168.819 211.455H170.486L171.626 212.848L172.776 211.455H174.433Z" fill="white"/>
<path d="M177.791 216.501C176.996 216.501 176.345 216.326 175.839 215.975C175.339 215.625 175.068 215.089 175.026 214.368H176.482C176.504 214.667 176.637 214.904 176.883 215.079C177.13 215.248 177.432 215.332 177.791 215.332C178.114 215.332 178.392 215.271 178.624 215.147C178.857 215.024 178.973 214.823 178.973 214.543C178.973 214.264 178.871 214.043 178.667 213.881C178.47 213.719 178.16 213.637 177.738 213.637H177.116V212.459H177.717C178.104 212.459 178.385 212.391 178.561 212.254C178.737 212.118 178.825 211.933 178.825 211.699C178.825 211.465 178.723 211.29 178.519 211.173C178.322 211.05 178.065 210.988 177.749 210.988C177.404 210.988 177.13 211.069 176.926 211.231C176.722 211.387 176.609 211.595 176.588 211.855H175.132C175.181 211.179 175.445 210.673 175.923 210.335C176.409 209.991 177.017 209.819 177.749 209.819C178.537 209.819 179.156 209.958 179.606 210.238C180.063 210.517 180.292 210.942 180.292 211.514C180.292 211.865 180.207 212.144 180.038 212.352C179.87 212.553 179.627 212.722 179.31 212.858V212.897C179.676 213.059 179.954 213.28 180.144 213.56C180.334 213.832 180.429 214.16 180.429 214.543C180.429 215.186 180.183 215.673 179.69 216.005C179.205 216.336 178.572 216.501 177.791 216.501Z" fill="white"/>
</g>
<g opacity="0.5">
<path d="M174.944 242.571L173.083 245.023L175.023 247.585H173.461L172.297 246.056L171.143 247.585H169.57L171.521 245.023L169.65 242.571H171.222L172.297 243.99L173.382 242.571H174.944Z" fill="white"/>
<path d="M178.25 244.1C178.476 243.901 178.648 243.712 178.768 243.534C178.887 243.348 178.947 243.15 178.947 242.938C178.947 242.66 178.854 242.451 178.668 242.312C178.482 242.167 178.27 242.094 178.031 242.094C177.759 242.094 177.517 242.187 177.305 242.372C177.099 242.551 176.986 242.819 176.967 243.176H175.563C175.603 242.375 175.862 241.796 176.34 241.439C176.817 241.081 177.381 240.902 178.031 240.902C178.715 240.902 179.269 241.078 179.693 241.429C180.118 241.779 180.33 242.283 180.33 242.938C180.33 243.335 180.237 243.693 180.051 244.01C179.872 244.321 179.604 244.636 179.245 244.954L177.723 246.284V246.324H180.43V247.585H175.563V246.473L178.25 244.1Z" fill="white"/>
</g>
<g opacity="0.5">
<path d="M175.899 273.073L173.997 275.574L175.981 278.186H174.384L173.194 276.627L172.014 278.186H170.406L172.4 275.574L170.488 273.073H172.095L173.194 274.521L174.302 273.073H175.899Z" fill="white"/>
<path d="M176.818 273.954L176.268 272.789L178.75 271.503H179.595V278.186H178.181V273.255L176.818 273.954Z" fill="white"/>
</g>
<g opacity="0.5">
<path d="M176.011 334.617L174.123 337.324L176.092 340.151H174.507L173.325 338.464L172.154 340.151H170.559L172.538 337.324L170.639 334.617H172.235L173.325 336.184L174.426 334.617H176.011Z" fill="white"/>
<path d="M179.599 340.294C179.053 340.294 178.569 340.144 178.145 339.844C177.727 339.545 177.401 339.114 177.165 338.551C176.936 337.981 176.822 337.309 176.822 336.535C176.822 335.76 176.936 335.092 177.165 334.529C177.401 333.959 177.727 333.525 178.145 333.225C178.569 332.926 179.053 332.776 179.599 332.776C180.151 332.776 180.635 332.926 181.053 333.225C181.477 333.525 181.803 333.959 182.032 334.529C182.268 335.092 182.386 335.76 182.386 336.535C182.386 337.309 182.268 337.981 182.032 338.551C181.803 339.114 181.477 339.545 181.053 339.844C180.635 340.144 180.151 340.294 179.599 340.294ZM178.215 336.535C178.215 337.287 178.34 337.872 178.589 338.288C178.838 338.697 179.175 338.902 179.599 338.902C180.023 338.902 180.359 338.697 180.609 338.288C180.858 337.872 180.982 337.287 180.982 336.535C180.982 335.782 180.858 335.201 180.609 334.792C180.359 334.376 180.023 334.168 179.599 334.168C179.175 334.168 178.838 334.376 178.589 334.792C178.34 335.201 178.215 335.782 178.215 336.535Z" fill="white"/>
</g>
<g opacity="0.5">
<path d="M170.453 304.841L168.564 307.548L170.534 310.375H168.948L167.767 308.688L166.595 310.375H165L166.979 307.548L165.081 304.841H166.676L167.767 306.408L168.867 304.841H170.453Z" fill="white"/>
<path d="M174.04 310.518C173.495 310.518 173.01 310.368 172.586 310.069C172.169 309.769 171.842 309.338 171.607 308.775C171.378 308.206 171.263 307.533 171.263 306.759C171.263 305.985 171.378 305.316 171.607 304.753C171.842 304.184 172.169 303.749 172.586 303.449C173.01 303.15 173.495 303 174.04 303C174.592 303 175.077 303.15 175.494 303.449C175.918 303.749 176.245 304.184 176.474 304.753C176.709 305.316 176.827 305.985 176.827 306.759C176.827 307.533 176.709 308.206 176.474 308.775C176.245 309.338 175.918 309.769 175.494 310.069C175.077 310.368 174.592 310.518 174.04 310.518ZM172.657 306.759C172.657 307.511 172.781 308.096 173.03 308.512C173.279 308.922 173.616 309.126 174.04 309.126C174.464 309.126 174.801 308.922 175.05 308.512C175.299 308.096 175.424 307.511 175.424 306.759C175.424 306.006 175.299 305.426 175.05 305.016C174.801 304.6 174.464 304.392 174.04 304.392C173.616 304.392 173.279 304.6 173.03 305.016C172.781 305.426 172.657 306.006 172.657 306.759Z" fill="white"/>
<path d="M178.705 310.474C178.449 310.474 178.243 310.397 178.089 310.244C177.94 310.083 177.866 309.871 177.866 309.608C177.866 309.338 177.94 309.126 178.089 308.973C178.243 308.812 178.449 308.732 178.705 308.732C178.954 308.732 179.156 308.812 179.31 308.973C179.465 309.126 179.543 309.338 179.543 309.608C179.543 309.871 179.465 310.083 179.31 310.244C179.156 310.397 178.954 310.474 178.705 310.474Z" fill="white"/>
<path d="M183.197 310.518C182.47 310.518 181.868 310.328 181.39 309.948C180.912 309.568 180.639 309.057 180.572 308.414H181.995C182.177 308.991 182.581 309.28 183.207 309.28C183.611 309.28 183.924 309.163 184.146 308.929C184.368 308.688 184.479 308.37 184.479 307.975C184.479 307.581 184.368 307.267 184.146 307.033C183.931 306.792 183.625 306.671 183.227 306.671C182.729 306.671 182.356 306.898 182.107 307.351H180.693L181.238 303.142H185.499V304.469H182.349L182.167 306.025H182.207C182.605 305.732 183.066 305.586 183.591 305.586C184.271 305.586 184.823 305.791 185.247 306.2C185.671 306.602 185.883 307.194 185.883 307.975C185.883 308.772 185.637 309.396 185.146 309.849C184.661 310.295 184.012 310.518 183.197 310.518Z" fill="white"/>
</g>
</svg>
